<svg width="50" height="50" viewBox="0 0 50 50" fill="none" xmlns="http://www.w3.org/2000/svg">
<path d="M48.9161 38.1429C47.3554 36.8339 38.2018 31.0375 36.6804 31.3036C35.9661 31.4304 35.4196 32.0393 33.9571 33.7839C33.2808 34.6427 32.538 35.4469 31.7357 36.1893C30.2657 35.8342 28.8427 35.3067 27.4964 34.6179C22.2166 32.0473 17.9511 27.7806 15.3821 22.5C14.6933 21.1537 14.1658 19.7307 13.8107 18.2607C14.5531 17.4584 15.3573 16.7156 16.2161 16.0393C17.9589 14.5768 18.5696 14.0339 18.6964 13.3161C18.9625 11.7911 13.1607 2.64107 11.8571 1.08036C11.3107 0.433929 10.8143 0 10.1786 0C8.33571 0 0 10.3071 0 11.6429C0 11.7518 0.178571 22.4821 13.7304 36.2696C27.5179 49.8214 38.2482 50 38.3571 50C39.6929 50 50 41.6643 50 39.8214C50 39.1857 49.5661 38.6893 48.9161 38.1429ZM37.5 23.2143H41.0714C41.0672 19.4268 39.5607 15.7956 36.8825 13.1175C34.2044 10.4393 30.5732 8.93283 26.7857 8.92857V12.5C29.6264 12.5028 32.35 13.6326 34.3587 15.6413C36.3674 17.65 37.4972 20.3736 37.5 23.2143Z" fill="white"/>
</svg>
