<svg width="60" height="18" viewBox="0 0 60 18" fill="none" xmlns="http://www.w3.org/2000/svg">
<path fill-rule="evenodd" clip-rule="evenodd" d="M17 9C17 13.4182 13.4182 17 9 17C4.58172 17 1 13.4182 1 9C1 4.58172 4.58172 1 9 1C13.4182 1 17 4.58172 17 9ZM12.2242 6.57574C12.4586 6.81005 12.4586 7.18995 12.2242 7.42424L8.22424 11.4242C7.98992 11.6586 7.61008 11.6586 7.37574 11.4242L5.77574 9.82424C5.54142 9.58992 5.54142 9.21008 5.77574 8.97576C6.01005 8.74144 6.38995 8.74144 6.62426 8.97576L7.8 10.1514L9.58784 8.3636L11.3758 6.57574C11.6101 6.34142 11.9899 6.34142 12.2242 6.57574Z" fill="white"/>
<path d="M28.53 5.53L25.9 12.5H24.85L22.22 5.53H23.19L25.38 11.54L27.57 5.53H28.53ZM34.5278 9.55C34.5278 9.72333 34.5178 9.90667 34.4978 10.1H30.1178C30.1511 10.64 30.3345 11.0633 30.6678 11.37C31.0078 11.67 31.4178 11.82 31.8978 11.82C32.2911 11.82 32.6178 11.73 32.8778 11.55C33.1445 11.3633 33.3311 11.1167 33.4378 10.81H34.4178C34.2711 11.3367 33.9778 11.7667 33.5378 12.1C33.0978 12.4267 32.5511 12.59 31.8978 12.59C31.3778 12.59 30.9111 12.4733 30.4978 12.24C30.0911 12.0067 29.7711 11.6767 29.5378 11.25C29.3045 10.8167 29.1878 10.3167 29.1878 9.75C29.1878 9.18333 29.3011 8.68667 29.5278 8.26C29.7545 7.83333 30.0711 7.50667 30.4778 7.28C30.8911 7.04667 31.3645 6.93 31.8978 6.93C32.4178 6.93 32.8778 7.04333 33.2778 7.27C33.6778 7.49667 33.9845 7.81 34.1978 8.21C34.4178 8.60333 34.5278 9.05 34.5278 9.55ZM33.5878 9.36C33.5878 9.01333 33.5111 8.71667 33.3578 8.47C33.2045 8.21667 32.9945 8.02667 32.7278 7.9C32.4678 7.76667 32.1778 7.7 31.8578 7.7C31.3978 7.7 31.0045 7.84667 30.6778 8.14C30.3578 8.43333 30.1745 8.84 30.1278 9.36H33.5878ZM36.639 7.91C36.799 7.59667 37.0257 7.35333 37.319 7.18C37.619 7.00667 37.9823 6.92 38.409 6.92V7.86H38.169C37.149 7.86 36.639 8.41333 36.639 9.52V12.5H35.729V7.02H36.639V7.91ZM39.9295 6.13C39.7561 6.13 39.6095 6.07 39.4895 5.95C39.3695 5.83 39.3095 5.68333 39.3095 5.51C39.3095 5.33667 39.3695 5.19 39.4895 5.07C39.6095 4.95 39.7561 4.89 39.9295 4.89C40.0961 4.89 40.2361 4.95 40.3495 5.07C40.4695 5.19 40.5295 5.33667 40.5295 5.51C40.5295 5.68333 40.4695 5.83 40.3495 5.95C40.2361 6.07 40.0961 6.13 39.9295 6.13ZM40.3695 7.02V12.5H39.4595V7.02H40.3695ZM44.1504 7.77H43.0004V12.5H42.0904V7.77H41.3804V7.02H42.0904V6.63C42.0904 6.01667 42.2471 5.57 42.5604 5.29C42.8804 5.00333 43.3904 4.86 44.0904 4.86V5.62C43.6904 5.62 43.4071 5.7 43.2404 5.86C43.0804 6.01333 43.0004 6.27 43.0004 6.63V7.02H44.1504V7.77ZM45.6814 6.13C45.5081 6.13 45.3614 6.07 45.2414 5.95C45.1214 5.83 45.0614 5.68333 45.0614 5.51C45.0614 5.33667 45.1214 5.19 45.2414 5.07C45.3614 4.95 45.5081 4.89 45.6814 4.89C45.8481 4.89 45.9881 4.95 46.1014 5.07C46.2214 5.19 46.2814 5.33667 46.2814 5.51C46.2814 5.68333 46.2214 5.83 46.1014 5.95C45.9881 6.07 45.8481 6.13 45.6814 6.13ZM46.1214 7.02V12.5H45.2114V7.02H46.1214ZM52.6723 9.55C52.6723 9.72333 52.6623 9.90667 52.6423 10.1H48.2623C48.2957 10.64 48.479 11.0633 48.8123 11.37C49.1523 11.67 49.5623 11.82 50.0423 11.82C50.4357 11.82 50.7623 11.73 51.0223 11.55C51.289 11.3633 51.4757 11.1167 51.5823 10.81H52.5623C52.4157 11.3367 52.1223 11.7667 51.6823 12.1C51.2423 12.4267 50.6957 12.59 50.0423 12.59C49.5223 12.59 49.0557 12.4733 48.6423 12.24C48.2357 12.0067 47.9157 11.6767 47.6823 11.25C47.449 10.8167 47.3323 10.3167 47.3323 9.75C47.3323 9.18333 47.4457 8.68667 47.6723 8.26C47.899 7.83333 48.2157 7.50667 48.6223 7.28C49.0357 7.04667 49.509 6.93 50.0423 6.93C50.5623 6.93 51.0223 7.04333 51.4223 7.27C51.8223 7.49667 52.129 7.81 52.3423 8.21C52.5623 8.60333 52.6723 9.05 52.6723 9.55ZM51.7323 9.36C51.7323 9.01333 51.6557 8.71667 51.5023 8.47C51.349 8.21667 51.139 8.02667 50.8723 7.9C50.6123 7.76667 50.3223 7.7 50.0023 7.7C49.5423 7.7 49.149 7.84667 48.8223 8.14C48.5023 8.43333 48.319 8.84 48.2723 9.36H51.7323ZM53.5335 9.74C53.5335 9.18 53.6468 8.69 53.8735 8.27C54.1002 7.84333 54.4102 7.51333 54.8035 7.28C55.2035 7.04667 55.6502 6.93 56.1435 6.93C56.5702 6.93 56.9668 7.03 57.3335 7.23C57.7002 7.42333 57.9802 7.68 58.1735 8V5.1H59.0935V12.5H58.1735V11.47C57.9935 11.7967 57.7268 12.0667 57.3735 12.28C57.0202 12.4867 56.6068 12.59 56.1335 12.59C55.6468 12.59 55.2035 12.47 54.8035 12.23C54.4102 11.99 54.1002 11.6533 53.8735 11.22C53.6468 10.7867 53.5335 10.2933 53.5335 9.74ZM58.1735 9.75C58.1735 9.33667 58.0902 8.97667 57.9235 8.67C57.7568 8.36333 57.5302 8.13 57.2435 7.97C56.9635 7.80333 56.6535 7.72 56.3135 7.72C55.9735 7.72 55.6635 7.8 55.3835 7.96C55.1035 8.12 54.8802 8.35333 54.7135 8.66C54.5468 8.96667 54.4635 9.32667 54.4635 9.74C54.4635 10.16 54.5468 10.5267 54.7135 10.84C54.8802 11.1467 55.1035 11.3833 55.3835 11.55C55.6635 11.71 55.9735 11.79 56.3135 11.79C56.6535 11.79 56.9635 11.71 57.2435 11.55C57.5302 11.3833 57.7568 11.1467 57.9235 10.84C58.0902 10.5267 58.1735 10.1633 58.1735 9.75Z" fill="white"/>
</svg>
